# Blender v2.93.5 OBJ File: 'cube.blend'
# www.blender.org
mtllib cube1.mtl
o Cube
v 1.000000 1.000000 -1.000000
v 1.000000 -1.000000 -1.000000
v 1.000000 1.000000 1.000000
v 1.000000 -1.000000 1.000000
v -1.000000 1.000000 -1.000000
v -1.000000 -1.000000 -1.000000
v -1.000000 1.000000 1.000000
v -1.000000 -1.000000 1.000000
vt 0.247884 0.749016
vt 0.497884 0.499016
vt 0.497884 0.749016
vt 0.247884 0.249016
vt 0.497884 0.249016
vt 0.247884 0.499016
vt -0.002116 0.249016
vt 0.497884 -0.000984
vt 0.247884 -0.000984
vt 0.747884 0.499016
vt 0.747884 0.249016
vt 0.497884 0.999016
vt 0.247884 0.999016
vt -0.002116 0.499016
vn 0.0000 1.0000 0.0000
vn 0.0000 0.0000 1.0000
vn -1.0000 0.0000 0.0000
vn 0.0000 -1.0000 0.0000
vn 1.0000 0.0000 0.0000
vn 0.0000 0.0000 -1.0000
usemtl Material
s off
f 5/1/1 3/2/1 1/3/1
f 3/2/2 8/4/2 4/5/2
f 7/6/3 6/7/3 8/4/3
f 2/8/4 8/4/4 6/9/4
f 1/10/5 4/5/5 2/11/5
f 5/1/6 2/12/6 6/13/6
f 5/1/1 7/6/1 3/2/1
f 3/2/2 7/6/2 8/4/2
f 7/6/3 5/14/3 6/7/3
f 2/8/4 4/5/4 8/4/4
f 1/10/5 3/2/5 4/5/5
f 5/1/6 1/3/6 2/12/6
